<?xml version="1.0" encoding="utf-8" ?><svg xmlns="http://www.w3.org/2000/svg" xmlns:xlink="http://www.w3.org/1999/xlink" width="165" height="131" viewBox="0 0 165 131"><path fill="#244084" d="M1.49928 127.762C3.38323 124.547 6.47029 120.755 8.82229 117.792C11.9741 113.81 15.1523 109.848 18.3567 105.909L50.3924 66.9136L85.7661 23.0052C90.1035 17.6932 99.7331 5.1491 104.773 1.548C105.592 2.35553 107.513 4.4714 107.834 5.51966C111.65 17.9887 116.718 29.9982 120.942 42.3222C122.03 45.4971 123.279 49.0328 123.561 52.3643C123.407 52.4497 123.252 52.5325 123.095 52.6127C121.285 53.5551 118.348 54.4749 116.398 55.2988C114.522 56.0916 109.176 58.8612 107.493 58.3278C106.136 54.2761 106.547 36.004 106.209 30.4737C105.634 21.0468 105.624 11.9444 104.517 2.34784C102.663 7.56284 98.9411 15.2352 96.5149 20.3577L84.8453 44.8763L76.8453 61.5273C75.4137 64.5642 73.4704 69.1474 71.8546 71.9075C83.3902 69.1076 91.4784 62.2198 104.277 63.4212C102.165 64.9526 97.9455 66.2577 95.1882 67.6716C86.2103 72.2752 74.3694 76.7283 66.8692 83.3552C66.1081 84.0277 63.9602 89.0353 62.9405 90.6775C66.3086 88.9221 70.6579 86.049 73.9532 83.9725C80.1884 79.9985 86.475 76.1058 92.8116 72.2955C99.3477 68.4334 112.631 63.5199 119.523 59.898C124.803 57.1229 158.721 48.9588 163.017 51.6155C159.931 52.0935 155.089 55.2 153.237 55.5635C150.254 55.5895 142.838 59.1174 139.776 60.3205C110.721 71.7383 85.7991 85.9663 62.8485 107.291C58.4792 111.351 53.7431 115.531 49.9867 120.187C48.2117 122.386 47.1341 126.124 44.847 127.766C41.9799 129.825 6.56526 128.593 1.49928 127.762Z"/><path fill="#244084" d="M132.45 78.9395C132.839 79.0514 133.112 79.0897 133.414 79.3719C135.43 81.2508 148.665 119.265 150.06 124.504C150.43 125.892 150.553 127.265 150.627 128.696C144.028 129.452 133.654 129.061 126.831 128.994C122.275 128.917 116.109 129.569 111.769 128.918C111.194 128.831 110.002 128.63 109.657 128.111C109.22 127.454 109.111 126.439 109.043 125.673C108.85 123.504 109.092 121.249 108.993 119.06C108.753 113.768 107.585 106.258 108.564 101.173C109.459 96.5262 127.956 82.0112 132.45 78.9395Z"/><path fill="#E62025" d="M163.017 51.6155C161.059 54.513 152.253 57.4395 149.129 59.5835C148.83 59.7886 146.019 61.342 145.8 61.386C144.955 62.2144 136.426 67.0223 134.562 68.324C128.517 72.5459 121.703 77.2545 116.124 82.0821C109.861 87.503 103.647 94.5362 98.0035 100.633C94.3239 104.609 90.749 108.367 87.5005 112.731C84.1 117.3 81.6992 122.403 78.4173 126.992C77.555 128.198 75.5252 128.621 74.1894 128.632C71.3616 128.655 57.864 129.454 56.1053 127.968C56.0085 127.633 55.8098 127.288 56.054 126.973C60.2814 121.531 65.3754 116.606 70.0357 111.479C92.3516 86.9265 116.517 69.7779 147.845 58.1113C149.477 57.2506 151.538 56.3542 153.237 55.5635C155.089 55.2 159.931 52.0935 163.017 51.6155Z"/><path fill="#FD2F25" d="M163.017 51.6155C161.059 54.513 152.253 57.4395 149.129 59.5835C148.83 59.7886 146.019 61.342 145.8 61.386C146.085 59.9188 152.763 57.1561 153.127 56.4466L153.29 56.5401L153.403 56.3995C151.908 56.6645 148.753 58.4515 147.845 58.1113C149.477 57.2506 151.538 56.3542 153.237 55.5635C155.089 55.2 159.931 52.0935 163.017 51.6155Z"/></svg>