<?xml version="1.0" encoding="utf-8" ?><svg xmlns="http://www.w3.org/2000/svg" xmlns:xlink="http://www.w3.org/1999/xlink" width="989" height="241" viewBox="0 0 989 241"><path fill="white" d="M768.211 97.4834C769.245 98.8118 768.724 123.311 768.704 126.856C761.01 134.104 752.818 142.843 745.136 150.398C753.157 158.082 760.814 166.241 768.743 174.054L768.752 183.815L817.334 97.7057C819.514 102.788 828.926 118.459 832.113 124.116L865.957 183.626C865.792 180.941 865.81 177.68 865.758 174.946C877.108 175.175 889.403 175.022 900.789 174.856C904.354 174.804 907.865 171.442 907.479 167.565C906.48 157.834 894.712 161.778 887.848 160.363C867.051 156.077 858.25 128.829 873.677 113.33C877.141 109.793 881.484 107.242 886.259 105.939C892.568 104.225 904.485 104.766 911.317 104.784L941.92 104.793C942.335 115.878 942.046 128.631 942.116 139.888C936.739 139.504 926.858 139.734 921.295 139.913L921.371 125.905C912.897 125.291 900.892 125.401 892.327 126.195C889.941 126.416 887.516 128.501 886.837 130.949C886.343 132.789 886.593 134.749 887.533 136.406C892.603 145.341 911.99 131.477 925.421 155.755C927.171 159.456 928.079 163.498 928.08 167.591C928.198 180.001 919.315 193.033 907.116 195.011C896.561 196.721 881.699 195.922 870.764 195.909L803.517 196.045L803.571 175.172C811.403 174.445 827.912 175.172 837.094 174.892C830.583 164.212 823.578 150.892 817.318 139.767L785.876 195.889C780.556 196.107 774.092 195.953 768.686 195.959L768.768 203.82C763.632 198.233 757.359 192.24 751.941 186.779L720.083 154.709C720.009 168.197 719.904 182.597 720.372 196.047C713.539 195.913 706.326 196.037 699.464 196.047L699.613 126.025C697.312 125.884 694.832 125.911 692.513 125.892L692.462 104.841L720.106 104.784C720.401 113.851 719.852 123.169 720.142 132.276C720.282 136.7 720.384 141.733 720.066 146.091C736.226 130 752.275 113.797 768.211 97.4834Z"/><path fill="white" d="M33.1116 192.593C40.36 181.994 51.2025 169.122 59.4827 158.965L105.913 102.449L150.126 47.4284C155.408 40.9694 168.409 24.2208 174.233 20.4562C178.403 21.8431 183.803 40.1968 185.304 44.7704C189.961 58.955 197.739 74.7579 200.342 89.3996C197.355 91.2081 181.145 97.7515 177.739 98.33C177.101 93.8478 176.973 84.2866 176.828 79.3365L175.843 47.8991C175.543 38.74 175.537 30.7927 174.086 21.6829C161.201 52.5829 144.134 85.5057 129.725 116.177C140.602 113.272 162.225 101.898 171.827 104.667L172.156 105.324C170.772 106.873 167.924 107.649 165.766 108.66C151.956 115.137 134.077 122.072 122.599 131.932C121.278 133.067 118.498 140.092 117.772 141.839C131.728 133.814 145.544 123.665 159.738 115.859C163.369 113.863 170.018 111.131 173.907 109.419C179.58 106.92 187.931 102.408 193.272 100.383C207.248 95.0845 240.679 85.9917 254.53 88.1763C252.2 88.9612 244.741 92.2668 243.45 92.5851C240.815 92.9502 226.185 99.091 223.022 100.249C180.773 115.713 141.486 140.173 109.417 171.784C106.066 175.087 102.871 178.289 99.95 182.089C97.4516 185.339 94.8243 190.111 92.0016 192.897C85.8893 194.933 40.7686 193.641 33.1116 192.593Z"/><path fill="white" d="M434.675 105.241C459.572 102.525 481.955 120.509 484.669 145.409C487.382 170.308 469.397 192.693 444.501 195.404C419.607 198.115 397.229 180.131 394.516 155.235C391.803 130.339 409.782 107.956 434.675 105.241ZM440.655 174.787C454.147 174.192 464.596 162.758 463.979 149.265C463.362 135.771 451.912 125.34 438.421 125.98C424.962 126.618 414.561 138.036 415.177 151.498C415.793 164.96 427.193 175.381 440.655 174.787Z"/><path fill="white" d="M491.55 97.2783C494.168 99.2339 505.887 111.46 508.647 114.239C521.569 127.159 534.403 140.168 547.148 153.264C547.32 137.541 547.412 120.544 547.097 104.87L567.581 104.818C568.525 117.525 567.623 138.652 567.62 152.252C567.616 167.938 568.272 187.463 567.448 202.621C567.374 202.622 567.3 202.631 567.226 202.625C565.804 202.52 518.346 153.778 512.373 147.89C512.328 164.288 512.079 179.467 512.342 196.007C505.41 195.974 498.478 195.979 491.546 196.023L491.55 97.2783Z"/><path fill="white" d="M657.81 104.844L685.667 104.801L685.674 118.495C685.601 127.427 685.606 136.359 685.689 145.29C685.752 160.69 687.288 173.499 675.627 185.464C662.143 199.3 640.308 199.42 626.598 185.804C615.239 174.522 616.222 163.075 616.378 148.181C616.48 140.758 616.508 133.334 616.463 125.91C614.226 125.801 611.741 125.81 609.481 125.769L609.28 104.817L636.944 104.796C637.377 124.323 636.16 144.131 637.335 163.607C637.671 169.171 643.662 173.907 648.856 174.769C658.981 176.45 664.838 168.506 664.89 159.153C664.952 148.054 664.694 137.088 664.883 126.055L658 125.91L657.81 104.844Z"/><path fill="white" d="M290.583 104.828L318.233 104.766L318.261 116.274C318.19 128.685 319.719 160.509 317.038 170.538C315.55 176.103 312.445 181.318 308.408 185.408C301.794 192.107 293.448 195.764 284.028 195.823C274.502 195.883 266.079 192.476 259.295 185.765C248.417 175.003 248.979 162.843 249.109 148.617C249.205 141.01 249.221 133.403 249.159 125.796L242.279 125.773C242.251 118.727 242.25 111.89 241.879 104.854C251.047 104.735 260.334 104.816 269.512 104.821C270.131 124.47 268.975 144.58 270.17 164.07C270.794 174.244 287.745 178.857 293.835 170.457C296.191 167.207 297.33 164.242 297.475 160.246C297.886 148.895 297.072 137.373 297.681 126.052C295.029 125.831 293.305 125.838 290.683 125.899L290.583 104.828Z"/><path fill="white" d="M325.011 104.796L387.549 104.789L387.564 125.958C380.605 125.742 373.642 125.683 366.68 125.78C366.1 145.423 366.721 168.385 366.592 188.477C366.575 195.638 366.607 202.799 366.689 209.959C360.126 202.962 352.997 195.92 346.254 189.067L346.252 125.919C339.452 125.745 332.108 125.919 325.205 125.845C325.351 118.828 325.286 111.809 325.011 104.796Z"/><path fill="white" d="M211.845 125.865C212.523 125.846 213.117 126.069 213.638 126.501C216.135 128.569 232.68 175.675 234.693 182.233C235.871 186.069 236.885 189.816 237.348 193.81C228.399 194.874 215.597 194.39 206.323 194.237C201.671 194.145 183.962 195.176 181.201 192.962C179.679 190.363 179.875 165.385 179.193 160.576C178.133 153.107 188.751 145.302 193.924 140.688C199.285 135.908 205.917 130.584 211.845 125.865Z"/><path fill="white" d="M574.603 104.839L602.247 104.802C602.341 134.874 601.908 166.052 602.49 196.018C595.517 195.917 588.542 195.915 581.569 196.013L581.519 150.702C581.497 144.993 581.105 131.212 581.727 126.015L574.693 125.856C574.611 118.85 574.581 111.844 574.603 104.839Z"/><path fill="#E51F24" d="M254.53 88.1763C252.069 92.1079 239.378 96.8358 234.939 99.4099C231.799 101.231 228.302 103.354 225.17 105.226C196.556 122.509 171.442 145.015 151.136 171.572C146.208 178.131 141.33 188.109 137.142 193.381C129.036 193.949 114.844 194.259 106.994 193.221C109.995 188.017 119.057 179.036 123.344 174.421C145.986 150.043 169.583 127.742 199.611 112.734C209.034 108.024 218.62 103.719 228.226 99.3891C231.354 97.9792 241.166 94.0326 243.45 92.5851C244.741 92.2668 252.2 88.9612 254.53 88.1763Z"/></svg>